<?xml version="1.0" encoding="UTF-8" standalone="no"?>
<!-- Created with Inkscape (http://www.inkscape.org/) -->
<svg id="svg2" xmlns:rdf="http://www.w3.org/1999/02/22-rdf-syntax-ns#" xmlns="http://www.w3.org/2000/svg" height="239.91" width="232.86" version="1.1" xmlns:cc="http://creativecommons.org/ns#" xmlns:dc="http://purl.org/dc/elements/1.1/">
 <defs id="defs4"></defs>
 <metadata id="metadata7">
  <rdf:RDF>
   <cc:Work rdf:about="">
    <dc:format>image/svg+xml</dc:format>
    <dc:type rdf:resource="http://purl.org/dc/dcmitype/StillImage"/>
    <dc:title/>
   </cc:Work>
  </rdf:RDF>
 </metadata>
 <g id="layer1" transform="translate(-133.92189,-119.3107)">
  <rect id="rect3788" ry="19.168" height="208.08" width="165.71" y="119.31" x="133.92" fill="#f86e00"/>
  <rect id="rect3806" ry="2.2728" height="35.714" width="140.1" y="132.97" x="146.73" fill="#e4e4e4"/>
  <path id="path3808" d="m269.29,242.01c0,28.206-22.865,51.071-51.071,51.071s-51.071-22.865-51.071-51.071,22.865-51.071,51.071-51.071,51.071,22.865,51.071,51.071z" transform="translate(-1.4352494,-9.571429)" fill="#e4e4e4"/>
  <path id="path3808-4" d="m269.29,242.01c0,28.206-22.865,51.071-51.071,51.071s-51.071-22.865-51.071-51.071,22.865-51.071,51.071-51.071,51.071,22.865,51.071,51.071z" transform="matrix(0.24475527,0,0,0.24475527,216.50425,245.85317)" fill="#e4e4e4"/>
  <path id="path3808-4-8" d="m269.29,242.01c0,28.206-22.865,51.071-51.071,51.071s-51.071-22.865-51.071-51.071,22.865-51.071,51.071-51.071,51.071,22.865,51.071,51.071z" transform="matrix(0.24475527,0,0,0.24475527,163.36993,247.11221)" fill="#e4e4e4"/>
  <path id="path3808-4-4" d="m269.29,242.01c0,28.206-22.865,51.071-51.071,51.071s-51.071-22.865-51.071-51.071,22.865-51.071,51.071-51.071,51.071,22.865,51.071,51.071z" transform="matrix(0.24475527,0,0,0.24475527,110.23562,245.59699)" fill="#e4e4e4"/>
  <path id="rect3858" stroke-linejoin="round" d="m326.28,227.55,0,5.4527,0,93.049c0,10.619-8.5489,19.168-19.168,19.168h-17.943c-10.62,0-19.17-7.29-19.17-17.91v-22.431" stroke="#F00" stroke-miterlimit="4" stroke-dasharray="none" stroke-width="2.5999999" fill="none"/>
  <g id="g3866">
   <path id="rect3863" stroke-linejoin="round" d="m358.93,227.82,0,110.95c0,10.619-8.5489,19.168-19.168,19.168h-104.16c-10.619,0-19.168-8.5489-19.168-19.168v-32.557" stroke-dashoffset="0" stroke="#000" stroke-linecap="round" stroke-miterlimit="4" stroke-dasharray="none" stroke-width="2.5999999" fill="none"/>
  </g>
  <rect id="rect3871" ry="2.1429" height="31.429" width="4.2857" y="151.29" x="323.93" fill="#939393"/>
  <rect id="rect3869" ry="7.1636" height="53.571" width="16.429" y="178.29" x="317.86" fill="#F00"/>
  <rect id="rect3871-6" ry="2.1429" height="31.429" width="4.2857" y="151.29" x="356.43" fill="#939393"/>
  <rect id="rect3869-9" ry="7.1636" height="53.571" width="16.429" y="178.29" x="350.36" fill="#000"/>
  <rect id="rect3903" transform="matrix(0.8660254,0.5,-0.5,0.8660254,0,0)" ry="9.2857" height="81.429" width="18.571" y="52.19" x="294.67" fill="#939393"/>
  <path id="path3909" d="m222.03,307.96c0,3.2218-2.6118,5.8336-5.8336,5.8336s-5.8336-2.6118-5.8336-5.8336,2.6118-5.8336,5.8336-5.8336,5.8336,2.6118,5.8336,5.8336z" transform="translate(0.58113358,-1.6112876)" fill="#000"/>
  <path id="path3909-8" d="m222.03,307.96c0,3.2218-2.6118,5.8336-5.8336,5.8336s-5.8336-2.6118-5.8336-5.8336,2.6118-5.8336,5.8336-5.8336,5.8336,2.6118,5.8336,5.8336z" transform="translate(53.715454,-2.8703276)" fill="#F00"/>
  <g id="flowRoot3034" style="letter-spacing:0px;word-spacing:0px;" font-weight="normal" transform="translate(489.92189,200.3107)" font-stretch="normal" line-height="125%" font-size="40px" font-variant="normal" font-family="Ticking Timebomb BB" font-style="italic" fill="#2b2b2b">
   <path id="path4045" d="m-274.96-49.314,1.16,1.56-2.04,9.52-1.88,1.68-1.16-1.68,2.04-9.52,1.88-1.56m4.04-12.08-2,9.56-1.84,1.68-1.2-1.68,2-9.56,1.88-1.56,1.16,1.56"/>
   <path id="path4047" d="m-256.98-49.314,1.2,1.56-1.6,7.52-1.92,1.68-1.12-1.68,1.6-7.52,1.84-1.56m-11.32,1.04-1.24-1.52,1.88-1.52,8.96,0,1.32,1.56-1.96,1.48-8.96,0m7.12,8.64,1.24,1.56-1.88,1.48-8.96,0-1.16-1.52,1.8-1.52,8.96,0m7.84-19.64-1.6,7.52-1.88,1.56-1.16-1.56,1.6-7.52,1.88-1.68,1.16,1.68m-12.44-0.6-1.28-1.52,1.92-1.52,9,0,1.12,1.52-1.76,1.52-9,0"/>
   <path id="path4049" d="m-250.92-36.594-3.04,0,0.68-3.04,3.04,0-0.68,3.04"/>
   <path id="path4051" d="m-231.98-49.314,1.2,1.56-1.6,7.52-1.92,1.68-1.12-1.68,1.6-7.52,1.84-1.56m-11.32,1.04-1.24-1.52,1.88-1.52,8.96,0,1.32,1.56-1.96,1.48-8.96,0m7.12,8.64,1.24,1.56-1.88,1.48-8.96,0-1.16-1.52,1.8-1.52,8.96,0m7.84-19.64-1.6,7.52-1.88,1.56-1.16-1.56,1.6-7.52,1.88-1.68,1.16,1.68m-12.44-0.6-1.28-1.52,1.92-1.52,9,0,1.12,1.52-1.76,1.52-9,0"/>
   <path id="path4053" d="m-215.1-47.754-2,9.4-1.92,1.68-1.12-1.68,2-9.4,1.84-1.56,1.2,1.56m-1.04-2.44-1.16-1.56,1.6-7.52,1.88-1.68,1.8-1.4-2.24,10.6-1.88,1.56m1.8-11.2-1.8,1.52-8.68,0-1.28-1.52,1.92-1.52,11.84,0-2,1.52"/>
  </g>
 </g>
</svg>
